<?xml version="1.0" encoding="UTF-8" standalone="no"?>
<!-- Created with Inkscape (http://www.inkscape.org/) -->

<svg
   xmlns:dc="http://purl.org/dc/elements/1.1/"
   xmlns:cc="http://creativecommons.org/ns#"
   xmlns:rdf="http://www.w3.org/1999/02/22-rdf-syntax-ns#"
   xmlns:svg="http://www.w3.org/2000/svg"
   xmlns="http://www.w3.org/2000/svg"
   xmlns:sodipodi="http://sodipodi.sourceforge.net/DTD/sodipodi-0.dtd"
   xmlns:inkscape="http://www.inkscape.org/namespaces/inkscape"
   width="36.679424mm"
   height="10.070188mm"
   viewBox="0 0 36.679424 10.070188"
   version="1.1"
   id="svg8"
   sodipodi:docname="logo-1.svg"
   inkscape:version="0.92.5 (2060ec1f9f, 2020-04-08)">
  <defs
     id="defs2" />
  <sodipodi:namedview
     id="base"
     pagecolor="#ffffff"
     bordercolor="#666666"
     borderopacity="1.0"
     inkscape:pageopacity="0.0"
     inkscape:pageshadow="2"
     inkscape:zoom="5.6"
     inkscape:cx="81.86719"
     inkscape:cy="51.698378"
     inkscape:document-units="mm"
     inkscape:current-layer="layer1"
     showgrid="false"
     inkscape:window-width="1920"
     inkscape:window-height="1010"
     inkscape:window-x="0"
     inkscape:window-y="0"
     inkscape:window-maximized="1" />
  <metadata
     id="metadata5">
    <rdf:RDF>
      <cc:Work
         rdf:about="">
        <dc:format>image/svg+xml</dc:format>
        <dc:type
           rdf:resource="http://purl.org/dc/dcmitype/StillImage" />
        <dc:title></dc:title>
      </cc:Work>
    </rdf:RDF>
  </metadata>
  <g
     inkscape:label="Layer 1"
     inkscape:groupmode="layer"
     id="layer1"
     transform="translate(-33.64239,-20.796146)">
    <path
       style="color:#000000;clip-rule:nonzero;display:inline;overflow:visible;visibility:visible;opacity:1;isolation:auto;mix-blend-mode:normal;color-interpolation:sRGB;color-interpolation-filters:linearRGB;solid-color:#000000;solid-opacity:1;vector-effect:none;fill:#edb200;fill-opacity:1;fill-rule:nonzero;stroke:none;stroke-width:0.23479056;stroke-linecap:round;stroke-linejoin:bevel;stroke-miterlimit:4;stroke-dasharray:none;stroke-dashoffset:0;stroke-opacity:1;paint-order:normal;color-rendering:auto;image-rendering:auto;shape-rendering:auto;text-rendering:auto;enable-background:accumulate"
       d="m 39.847965,21.363111 a 4.4766646,4.4766646 0 0 0 -4.140477,4.459645 4.4766646,4.4766646 0 0 0 4.476613,4.476613 4.4766646,4.4766646 0 0 0 2.723479,-0.930449 l -0.784623,-0.746103 a 3.4093804,3.4093804 0 0 1 -1.938856,0.609446 3.4093804,3.4093804 0 0 1 -3.409049,-3.409507 3.4093804,3.4093804 0 0 1 3.110057,-3.393916 z"
       id="path2425" />
    <path
       style="color:#000000;clip-rule:nonzero;display:inline;overflow:visible;visibility:visible;opacity:1;isolation:auto;mix-blend-mode:normal;color-interpolation:sRGB;color-interpolation-filters:linearRGB;solid-color:#000000;solid-opacity:1;vector-effect:none;fill:#0e8bd2;fill-opacity:1;fill-rule:nonzero;stroke:none;stroke-width:0.23479056;stroke-linecap:round;stroke-linejoin:bevel;stroke-miterlimit:4;stroke-dasharray:none;stroke-dashoffset:0;stroke-opacity:1;paint-order:normal;color-rendering:auto;image-rendering:auto;shape-rendering:auto;text-rendering:auto;enable-background:accumulate"
       d="m 40.886639,21.403921 -0.01146,1.080862 a 3.4093804,3.4093804 0 0 1 2.718434,3.33797 3.4093804,3.4093804 0 0 1 -0.759858,2.142006 l 0.789667,0.71767 a 4.4766646,4.4766646 0 0 0 1.037755,-2.859676 4.4766646,4.4766646 0 0 0 -3.774533,-4.418832 z"
       id="path967" />
    <path
       style="color:#000000;clip-rule:nonzero;display:inline;overflow:visible;visibility:visible;opacity:1;isolation:auto;mix-blend-mode:normal;color-interpolation:sRGB;color-interpolation-filters:linearRGB;solid-color:#000000;solid-opacity:1;vector-effect:none;fill:#edb200;fill-opacity:1;fill-rule:nonzero;stroke:none;stroke-width:0.20880914;stroke-linecap:round;stroke-linejoin:bevel;stroke-miterlimit:4;stroke-dasharray:none;stroke-dashoffset:0;stroke-opacity:1;paint-order:normal;color-rendering:auto;image-rendering:auto;shape-rendering:auto;text-rendering:auto;enable-background:accumulate"
       d="m 40.790658,23.603156 a 0.58307235,0.57486006 21.094182 0 0 -0.75078,0.326242 0.58307235,0.57486006 21.094182 0 0 -0.03656,0.178322 l -0.632085,-0.243826 c -0.272559,-0.105141 -0.57682,0.0294 -0.68196,0.301958 l -0.182412,0.472876 a 0.58307235,0.57486006 21.094182 0 1 0.312849,0.736083 0.58307235,0.57486006 21.094182 0 1 -0.72583,0.334505 l -0.239559,0.621019 c -0.105141,0.272563 0.02994,0.576578 0.302506,0.681718 l 0.717807,0.276895 a 0.58307235,0.57486006 21.094182 0 1 0.009,-0.02692 0.58307235,0.57486006 21.094182 0 1 0.75078,-0.326242 0.58307235,0.57486006 21.094182 0 1 0.337191,0.745928 0.58307235,0.57486006 21.094182 0 1 -0.01101,0.02616 l 0.551887,0.212891 c 0.272557,0.10514 0.576425,-0.02955 0.681565,-0.302111 l 0.22813,-0.591391 a 0.58307235,0.57486006 21.094182 0 0 0.160631,0.09419 0.58307235,0.57486006 21.094182 0 0 0.750934,-0.326636 0.58307235,0.57486006 21.094182 0 0 -0.337191,-0.745927 0.58307235,0.57486006 21.094182 0 0 -0.182272,-0.0381 l 0.21472,-0.556626 c 0.105141,-0.27256 -0.02956,-0.576426 -0.302111,-0.681565 l -0.690945,-0.266533 a 0.58307235,0.57486006 21.094182 0 0 0.09187,-0.156986 0.58307235,0.57486006 21.094182 0 0 -0.33719,-0.745928 z"
       id="rect1646"
       inkscape:connector-curvature="0" />
    <g
       id="g2405"
       style="fill:#0e8bd2;fill-opacity:1">
      <path
         inkscape:connector-curvature="0"
         d="m 47.014563,22.24533 q 0.2311,0 0.398345,0.05883 0.170284,0.05883 0.34361,0.194127 0.03648,0.02647 0.04865,0.05588 0.01219,0.02647 0.01219,0.06471 0,0.05883 -0.04561,0.09706 -0.04257,0.03823 -0.100345,0.03823 -0.05778,0 -0.106427,-0.03823 -0.124672,-0.102946 -0.243263,-0.147066 -0.118593,-0.04706 -0.307121,-0.04706 -0.237183,0 -0.437875,0.120594 -0.197652,0.120594 -0.316244,0.329429 -0.115552,0.205892 -0.115552,0.450022 0,0.247071 0.115552,0.452964 0.118593,0.205893 0.316244,0.326487 0.200692,0.120594 0.437875,0.120594 0.291916,0 0.559506,-0.194127 0.05169,-0.03529 0.100344,-0.03529 0.05778,0 0.09426,0.04118 0.03953,0.03823 0.03953,0.102946 0,0.06177 -0.04865,0.10883 -0.328406,0.255894 -0.744996,0.255894 -0.325366,0 -0.595998,-0.155889 -0.26759,-0.155891 -0.42267,-0.426493 -0.155081,-0.270602 -0.155081,-0.597089 0,-0.323545 0.155081,-0.591205 0.15508,-0.270602 0.42267,-0.426493 0.270632,-0.158831 0.595998,-0.158831 z"
         style="font-style:normal;font-variant:normal;font-weight:bold;font-stretch:normal;font-size:2.46944451px;line-height:100%;font-family:Comfortaa;-inkscape-font-specification:Comfortaa;font-variant-ligatures:normal;font-variant-caps:normal;font-variant-numeric:normal;font-feature-settings:normal;text-align:start;letter-spacing:0px;word-spacing:0px;writing-mode:lr-tb;text-anchor:start;fill:#0e8bd2;fill-opacity:1;stroke:none;stroke-width:0.16888392px;stroke-linecap:butt;stroke-linejoin:miter;stroke-opacity:1"
         id="path2246" />
      <path
         inkscape:connector-curvature="0"
         d="m 49.827298,22.274744 q 0.06386,0 0.103386,0.04118 0.04257,0.03823 0.04257,0.100003 0,0.06177 -0.04257,0.102946 -0.03953,0.03823 -0.103386,0.03823 h -0.653772 v 1.861859 q 0,0.06471 -0.04561,0.108829 -0.04561,0.04412 -0.112511,0.04412 -0.0669,0 -0.11251,-0.04412 -0.04561,-0.04412 -0.04561,-0.108829 v -1.861859 h -0.656813 q -0.06386,0 -0.106427,-0.03823 -0.03953,-0.04118 -0.03953,-0.102946 0,-0.06177 0.03953,-0.100003 0.04257,-0.04118 0.106427,-0.04118 z"
         style="font-style:normal;font-variant:normal;font-weight:bold;font-stretch:normal;font-size:2.46944451px;line-height:100%;font-family:Comfortaa;-inkscape-font-specification:Comfortaa;font-variant-ligatures:normal;font-variant-caps:normal;font-variant-numeric:normal;font-feature-settings:normal;text-align:start;letter-spacing:0px;word-spacing:0px;writing-mode:lr-tb;text-anchor:start;fill:#0e8bd2;fill-opacity:1;stroke:none;stroke-width:0.16888392px;stroke-linecap:butt;stroke-linejoin:miter;stroke-opacity:1"
         id="path2248" />
      <path
         inkscape:connector-curvature="0"
         d="m 51.530141,24.418969 q 0,0.06471 -0.04561,0.10883 -0.04257,0.04412 -0.11251,0.04412 -0.0669,0 -0.112511,-0.04412 -0.04561,-0.04412 -0.04561,-0.10883 v -1.991277 q 0,-0.06765 0.04561,-0.108829 0.04561,-0.04412 0.112511,-0.04412 h 0.60816 q 0.225019,0 0.401386,0.09706 0.179406,0.09706 0.276712,0.270602 0.100344,0.173537 0.100344,0.394137 0,0.214717 -0.100344,0.382373 -0.0973,0.167655 -0.276712,0.261777 -0.176367,0.09412 -0.401386,0.09412 h -0.450039 z m 0.450038,-0.926517 q 0.206774,0 0.34057,-0.126477 0.133795,-0.129419 0.133795,-0.329429 0,-0.208834 -0.133795,-0.344134 -0.133796,-0.135302 -0.34057,-0.135302 h -0.450038 v 0.935342 z"
         style="font-style:normal;font-variant:normal;font-weight:bold;font-stretch:normal;font-size:2.46944451px;line-height:100%;font-family:Comfortaa;-inkscape-font-specification:Comfortaa;font-variant-ligatures:normal;font-variant-caps:normal;font-variant-numeric:normal;font-feature-settings:normal;text-align:start;letter-spacing:0px;word-spacing:0px;writing-mode:lr-tb;text-anchor:start;fill:#0e8bd2;fill-opacity:1;stroke:none;stroke-width:0.16888392px;stroke-linecap:butt;stroke-linejoin:miter;stroke-opacity:1"
         id="path2250" />
      <path
         inkscape:connector-curvature="0"
         d="m 54.449306,22.960072 q 0.06994,0 0.112511,0.04117 0.04257,0.04118 0.04257,0.10883 v 1.31183 q 0,0.06471 -0.04257,0.10883 -0.04257,0.04118 -0.112511,0.04118 -0.0669,0 -0.11251,-0.04118 -0.04257,-0.04412 -0.04257,-0.10883 v -0.03235 q -0.0973,0.09412 -0.231101,0.147066 -0.133796,0.05 -0.285836,0.05 -0.209815,0 -0.377059,-0.08824 -0.167245,-0.08824 -0.261508,-0.255895 -0.09426,-0.170597 -0.09426,-0.408844 v -0.723566 q 0,-0.06471 0.04257,-0.105887 0.04561,-0.04412 0.11251,-0.04412 0.0669,0 0.109469,0.04412 0.04561,0.04117 0.04561,0.105887 v 0.723566 q 0,0.238247 0.130754,0.361783 0.133796,0.120594 0.352733,0.120594 0.127714,0 0.231101,-0.05 0.106428,-0.05 0.164204,-0.135302 0.06082,-0.08529 0.06082,-0.191186 v -0.829453 q 0,-0.06765 0.04257,-0.108829 0.04561,-0.04118 0.112511,-0.04118 z"
         style="font-style:normal;font-variant:normal;font-weight:bold;font-stretch:normal;font-size:2.46944451px;line-height:100%;font-family:Comfortaa;-inkscape-font-specification:Comfortaa;font-variant-ligatures:normal;font-variant-caps:normal;font-variant-numeric:normal;font-feature-settings:normal;text-align:start;letter-spacing:0px;word-spacing:0px;writing-mode:lr-tb;text-anchor:start;fill:#0e8bd2;fill-opacity:1;stroke:none;stroke-width:0.16888392px;stroke-linecap:butt;stroke-linejoin:miter;stroke-opacity:1"
         id="path2252" />
      <path
         inkscape:connector-curvature="0"
         d="m 56.255539,24.295433 q 0.142918,0 0.142918,0.138242 0,0.138243 -0.142918,0.138243 h -1.036912 q -0.142918,0 -0.142918,-0.138243 0,-0.05883 0.02736,-0.09412 l 0.860547,-1.100056 h -0.775405 q -0.142918,0 -0.142918,-0.138241 0,-0.138242 0.142918,-0.138242 h 1.036913 q 0.142918,0 0.142918,0.138242 0,0.05883 -0.02736,0.09412 l -0.857506,1.100055 z"
         style="font-style:normal;font-variant:normal;font-weight:bold;font-stretch:normal;font-size:2.46944451px;line-height:100%;font-family:Comfortaa;-inkscape-font-specification:Comfortaa;font-variant-ligatures:normal;font-variant-caps:normal;font-variant-numeric:normal;font-feature-settings:normal;text-align:start;letter-spacing:0px;word-spacing:0px;writing-mode:lr-tb;text-anchor:start;fill:#0e8bd2;fill-opacity:1;stroke:none;stroke-width:0.16888392px;stroke-linecap:butt;stroke-linejoin:miter;stroke-opacity:1"
         id="path2254" />
      <path
         inkscape:connector-curvature="0"
         d="m 57.897568,24.295433 q 0.142918,0 0.142918,0.138242 0,0.138243 -0.142918,0.138243 h -1.036913 q -0.142918,0 -0.142918,-0.138243 0,-0.05883 0.02736,-0.09412 l 0.860547,-1.100056 H 56.83024 q -0.142917,0 -0.142917,-0.138241 0,-0.138242 0.142917,-0.138242 h 1.036912 q 0.142918,0 0.142918,0.138242 0,0.05883 -0.02736,0.09412 l -0.857505,1.100055 z"
         style="font-style:normal;font-variant:normal;font-weight:bold;font-stretch:normal;font-size:2.46944451px;line-height:100%;font-family:Comfortaa;-inkscape-font-specification:Comfortaa;font-variant-ligatures:normal;font-variant-caps:normal;font-variant-numeric:normal;font-feature-settings:normal;text-align:start;letter-spacing:0px;word-spacing:0px;writing-mode:lr-tb;text-anchor:start;fill:#0e8bd2;fill-opacity:1;stroke:none;stroke-width:0.16888392px;stroke-linecap:butt;stroke-linejoin:miter;stroke-opacity:1"
         id="path2256" />
      <path
         inkscape:connector-curvature="0"
         d="m 58.374972,22.42181 q 0,-0.06471 0.04257,-0.105888 0.04257,-0.04118 0.109469,-0.04118 0.0669,0 0.109469,0.04118 0.04257,0.04118 0.04257,0.105888 v 1.605963 q 0,0.10883 0.04257,0.179421 0.04257,0.07059 0.109468,0.07059 h 0.07603 q 0.06082,0 0.0973,0.04118 0.03953,0.04118 0.03953,0.105888 0,0.06471 -0.05778,0.105887 -0.05778,0.04118 -0.148999,0.04118 h -0.006 q -0.130754,0 -0.237182,-0.06765 -0.103385,-0.0706 -0.161163,-0.194129 -0.05777,-0.126476 -0.05777,-0.282366 z"
         style="font-style:normal;font-variant:normal;font-weight:bold;font-stretch:normal;font-size:2.46944451px;line-height:100%;font-family:Comfortaa;-inkscape-font-specification:Comfortaa;font-variant-ligatures:normal;font-variant-caps:normal;font-variant-numeric:normal;font-feature-settings:normal;text-align:start;letter-spacing:0px;word-spacing:0px;writing-mode:lr-tb;text-anchor:start;fill:#0e8bd2;fill-opacity:1;stroke:none;stroke-width:0.16888392px;stroke-linecap:butt;stroke-linejoin:miter;stroke-opacity:1"
         id="path2258" />
      <path
         inkscape:connector-curvature="0"
         d="m 60.749831,23.742463 q 0,0.05589 -0.03953,0.09412 -0.03953,0.03529 -0.100344,0.03529 h -1.155503 q 0.03344,0.205893 0.19157,0.332369 0.161162,0.126477 0.392263,0.126477 0.09122,0 0.188529,-0.03235 0.100344,-0.03235 0.164203,-0.07942 0.04257,-0.03235 0.100345,-0.03235 0.05778,0 0.09122,0.02941 0.05474,0.04412 0.05474,0.100003 0,0.05294 -0.04865,0.08824 -0.103385,0.07942 -0.258467,0.129419 -0.152041,0.05 -0.291917,0.05 -0.249346,0 -0.446997,-0.102946 -0.197652,-0.105888 -0.310162,-0.291191 -0.109469,-0.185304 -0.109469,-0.42061 0,-0.235305 0.103386,-0.420609 0.106427,-0.188245 0.291917,-0.291191 0.18853,-0.105887 0.425712,-0.105887 0.234141,0 0.404426,0.100003 0.170285,0.100004 0.26151,0.279426 0.09122,0.17942 0.09122,0.411785 z m -0.757159,-0.538261 q -0.221978,0 -0.361856,0.117655 -0.136836,0.117656 -0.173325,0.314721 h 1.012586 q -0.02736,-0.197068 -0.152039,-0.314721 -0.124673,-0.117655 -0.325366,-0.117655 z"
         style="font-style:normal;font-variant:normal;font-weight:bold;font-stretch:normal;font-size:2.46944451px;line-height:100%;font-family:Comfortaa;-inkscape-font-specification:Comfortaa;font-variant-ligatures:normal;font-variant-caps:normal;font-variant-numeric:normal;font-feature-settings:normal;text-align:start;letter-spacing:0px;word-spacing:0px;writing-mode:lr-tb;text-anchor:start;fill:#0e8bd2;fill-opacity:1;stroke:none;stroke-width:0.16888392px;stroke-linecap:butt;stroke-linejoin:miter;stroke-opacity:1"
         id="path2260" />
      <path
         inkscape:connector-curvature="0"
         d="m 63.580809,22.274744 q 0.06386,0 0.103385,0.04118 0.04257,0.03823 0.04257,0.100003 0,0.06177 -0.04257,0.102946 -0.03953,0.03823 -0.103385,0.03823 h -0.653772 v 1.861859 q 0,0.06471 -0.04561,0.108829 -0.04561,0.04412 -0.11251,0.04412 -0.0669,0 -0.11251,-0.04412 -0.04561,-0.04412 -0.04561,-0.108829 v -1.861859 h -0.656813 q -0.06386,0 -0.106427,-0.03823 -0.03953,-0.04118 -0.03953,-0.102946 0,-0.06177 0.03953,-0.100003 0.04257,-0.04118 0.106427,-0.04118 z"
         style="font-style:normal;font-variant:normal;font-weight:bold;font-stretch:normal;font-size:2.46944451px;line-height:100%;font-family:Comfortaa;-inkscape-font-specification:Comfortaa;font-variant-ligatures:normal;font-variant-caps:normal;font-variant-numeric:normal;font-feature-settings:normal;text-align:start;letter-spacing:0px;word-spacing:0px;writing-mode:lr-tb;text-anchor:start;fill:#0e8bd2;fill-opacity:1;stroke:none;stroke-width:0.16888392px;stroke-linecap:butt;stroke-linejoin:miter;stroke-opacity:1"
         id="path2262" />
      <path
         inkscape:connector-curvature="0"
         d="m 65.082957,23.742463 q 0,0.05589 -0.03953,0.09412 -0.03953,0.03529 -0.100345,0.03529 h -1.155504 q 0.03344,0.205893 0.191571,0.332369 0.161163,0.126477 0.392264,0.126477 0.09122,0 0.188529,-0.03235 0.100344,-0.03235 0.164203,-0.07942 0.04257,-0.03235 0.100344,-0.03235 0.05778,0 0.09122,0.02941 0.05473,0.04412 0.05473,0.100003 0,0.05294 -0.04865,0.08824 -0.103386,0.07942 -0.258468,0.129419 -0.15204,0.05 -0.291916,0.05 -0.249346,0 -0.446999,-0.102946 -0.197652,-0.105888 -0.310161,-0.291191 -0.109469,-0.185304 -0.109469,-0.42061 0,-0.235305 0.103386,-0.420609 0.106428,-0.188245 0.291917,-0.291191 0.188529,-0.105887 0.425712,-0.105887 0.234141,0 0.404426,0.100003 0.170285,0.100004 0.261509,0.279426 0.09122,0.17942 0.09122,0.411785 z m -0.75716,-0.538261 q -0.221979,0 -0.361855,0.117655 -0.136836,0.117656 -0.173325,0.314721 h 1.012586 Q 64.775842,23.43951 64.651162,23.321857 64.52649,23.204202 64.325797,23.204202 Z"
         style="font-style:normal;font-variant:normal;font-weight:bold;font-stretch:normal;font-size:2.46944451px;line-height:100%;font-family:Comfortaa;-inkscape-font-specification:Comfortaa;font-variant-ligatures:normal;font-variant-caps:normal;font-variant-numeric:normal;font-feature-settings:normal;text-align:start;letter-spacing:0px;word-spacing:0px;writing-mode:lr-tb;text-anchor:start;fill:#0e8bd2;fill-opacity:1;stroke:none;stroke-width:0.16888392px;stroke-linecap:butt;stroke-linejoin:miter;stroke-opacity:1"
         id="path2264" />
      <path
         inkscape:connector-curvature="0"
         d="m 66.062089,22.951248 q 0.197652,0 0.352733,0.06177 0.158122,0.06177 0.249345,0.170597 0.03953,0.04706 0.03953,0.09412 0,0.05 -0.05169,0.09118 -0.03344,0.02354 -0.08514,0.02354 -0.07907,0 -0.142918,-0.05589 -0.07603,-0.06765 -0.161162,-0.09412 -0.08514,-0.02941 -0.206775,-0.02941 -0.139876,0 -0.2311,0.04706 -0.08818,0.04412 -0.08818,0.126476 0,0.05883 0.0304,0.100004 0.03042,0.03823 0.115552,0.07354 0.08514,0.03235 0.246305,0.06471 0.331448,0.06471 0.468284,0.17942 0.139876,0.114714 0.139876,0.297074 0,0.1353 -0.07603,0.247071 -0.07603,0.108829 -0.225019,0.173538 -0.145958,0.06177 -0.352734,0.06177 -0.206774,0 -0.389221,-0.06177 -0.182448,-0.06177 -0.285835,-0.161773 -0.03953,-0.03823 -0.03953,-0.09118 0,-0.0706 0.06082,-0.114714 0.05778,-0.04118 0.106427,-0.04118 0.06082,0 0.115552,0.05294 0.05778,0.06177 0.173327,0.10883 0.115551,0.04412 0.246304,0.04412 0.173325,0 0.267591,-0.05588 0.0973,-0.05589 0.0973,-0.150008 0,-0.09118 -0.09426,-0.150007 -0.09426,-0.06177 -0.319283,-0.102946 -0.583835,-0.108829 -0.583835,-0.464729 0,-0.144125 0.08818,-0.24413 0.08818,-0.100003 0.231101,-0.150008 0.142918,-0.05 0.304079,-0.05 z"
         style="font-style:normal;font-variant:normal;font-weight:bold;font-stretch:normal;font-size:2.46944451px;line-height:100%;font-family:Comfortaa;-inkscape-font-specification:Comfortaa;font-variant-ligatures:normal;font-variant-caps:normal;font-variant-numeric:normal;font-feature-settings:normal;text-align:start;letter-spacing:0px;word-spacing:0px;writing-mode:lr-tb;text-anchor:start;fill:#0e8bd2;fill-opacity:1;stroke:none;stroke-width:0.16888392px;stroke-linecap:butt;stroke-linejoin:miter;stroke-opacity:1"
         id="path2266" />
      <path
         inkscape:connector-curvature="0"
         d="m 67.837914,24.277785 q 0.05474,0 0.09122,0.04117 0.03953,0.04118 0.03953,0.105888 0,0.06471 -0.05169,0.105888 -0.04865,0.04118 -0.127713,0.04118 h -0.05473 q -0.148999,0 -0.273672,-0.07354 -0.121635,-0.07648 -0.19157,-0.205893 -0.06994,-0.129418 -0.06994,-0.291191 v -0.726496 h -0.139876 q -0.06386,0 -0.103386,-0.03529 -0.03953,-0.03529 -0.03953,-0.08824 0,-0.05883 0.03953,-0.09412 0.03953,-0.03529 0.103386,-0.03529 h 0.139876 v -0.42355 q 0,-0.06471 0.04257,-0.105888 0.04257,-0.04118 0.109469,-0.04118 0.0669,0 0.109469,0.04118 0.04257,0.04118 0.04257,0.105888 v 0.42355 h 0.258469 q 0.06386,0 0.103385,0.03529 0.03953,0.03529 0.03953,0.09412 0,0.05294 -0.03953,0.08824 -0.03953,0.03529 -0.103385,0.03529 h -0.258469 v 0.726507 q 0,0.117656 0.0669,0.197068 0.0669,0.07942 0.164203,0.07942 z"
         style="font-style:normal;font-variant:normal;font-weight:bold;font-stretch:normal;font-size:2.46944451px;line-height:100%;font-family:Comfortaa;-inkscape-font-specification:Comfortaa;font-variant-ligatures:normal;font-variant-caps:normal;font-variant-numeric:normal;font-feature-settings:normal;text-align:start;letter-spacing:0px;word-spacing:0px;writing-mode:lr-tb;text-anchor:start;fill:#0e8bd2;fill-opacity:1;stroke:none;stroke-width:0.16888392px;stroke-linecap:butt;stroke-linejoin:miter;stroke-opacity:1"
         id="path2268" />
    </g>
    <g
       id="g2415"
       style="fill:#edb200;fill-opacity:1">
      <path
         inkscape:connector-curvature="0"
         d="m 46.414105,29.24778 q 0,0.114536 -0.07809,0.192629 -0.07289,0.07809 -0.192628,0.07809 -0.114536,0 -0.192629,-0.07809 -0.07809,-0.07809 -0.07809,-0.192629 v -3.524582 q 0,-0.119742 0.07809,-0.192629 0.07809,-0.07809 0.192629,-0.07809 h 1.041235 q 0.385257,0 0.687216,0.171803 0.307164,0.171804 0.473762,0.478969 0.171804,0.307164 0.171804,0.697628 0,0.380051 -0.171804,0.676803 -0.166598,0.296752 -0.473762,0.46335 -0.301959,0.166597 -0.687216,0.166597 h -0.770514 z m 0.770514,-1.639946 q 0.35402,0 0.583092,-0.223866 0.229072,-0.229071 0.229072,-0.583091 0,-0.369639 -0.229072,-0.609123 -0.229072,-0.239484 -0.583092,-0.239484 h -0.770514 v 1.655564 z"
         style="font-style:normal;font-variant:normal;font-weight:bold;font-stretch:normal;font-size:5.20617771px;line-height:100%;font-family:Comfortaa;-inkscape-font-specification:Comfortaa;font-variant-ligatures:normal;font-variant-caps:normal;font-variant-numeric:normal;font-feature-settings:normal;text-align:start;letter-spacing:0px;word-spacing:0px;writing-mode:lr-tb;text-anchor:start;fill:#edb200;fill-opacity:1;stroke:none;stroke-width:0.13945119px;stroke-linecap:butt;stroke-linejoin:miter;stroke-opacity:1"
         id="path2270" />
      <path
         inkscape:connector-curvature="0"
         d="m 48.959921,25.712785 q 0,-0.114535 0.07289,-0.187422 0.07289,-0.07289 0.187422,-0.07289 0.114536,0 0.187423,0.07289 0.07289,0.07289 0.07289,0.187422 v 2.842573 q 0,0.192629 0.07289,0.317577 0.07289,0.124949 0.187422,0.124949 h 0.130155 q 0.104123,0 0.166597,0.07289 0.06768,0.07289 0.06768,0.187422 0,0.114536 -0.09892,0.187423 -0.09892,0.07289 -0.255103,0.07289 h -0.01041 q -0.223866,0 -0.406082,-0.119742 -0.17701,-0.124948 -0.275927,-0.343607 -0.09892,-0.223866 -0.09892,-0.499794 z"
         style="font-style:normal;font-variant:normal;font-weight:bold;font-stretch:normal;font-size:5.20617771px;line-height:100%;font-family:Comfortaa;-inkscape-font-specification:Comfortaa;font-variant-ligatures:normal;font-variant-caps:normal;font-variant-numeric:normal;font-feature-settings:normal;text-align:start;letter-spacing:0px;word-spacing:0px;writing-mode:lr-tb;text-anchor:start;fill:#edb200;fill-opacity:1;stroke:none;stroke-width:0.13945119px;stroke-linecap:butt;stroke-linejoin:miter;stroke-opacity:1"
         id="path2272" />
      <path
         inkscape:connector-curvature="0"
         d="m 51.760838,26.649897 q 0.400875,0 0.723658,0.192629 0.32799,0.187422 0.515412,0.520618 0.192629,0.327989 0.192629,0.734071 v 1.160977 q 0,0.114536 -0.07809,0.192629 -0.07289,0.07289 -0.187422,0.07289 -0.114536,0 -0.192629,-0.07289 -0.07289,-0.07809 -0.07289,-0.192629 v -0.192628 q -0.182216,0.223866 -0.442525,0.348814 -0.260309,0.124948 -0.562267,0.124948 -0.374845,0 -0.682009,-0.187422 -0.301958,-0.187423 -0.478968,-0.515412 -0.171804,-0.333195 -0.171804,-0.739277 0,-0.406082 0.187422,-0.734071 0.187422,-0.333196 0.515412,-0.520618 0.333195,-0.192629 0.734071,-0.192629 z m 0,2.420873 q 0.260309,0 0.468556,-0.124948 0.213453,-0.130155 0.333195,-0.348814 0.119742,-0.223866 0.119742,-0.499793 0,-0.275928 -0.119742,-0.499793 -0.119742,-0.223866 -0.333195,-0.348814 -0.208247,-0.130155 -0.468556,-0.130155 -0.260309,0 -0.473762,0.130155 -0.208248,0.124948 -0.333196,0.348814 -0.119742,0.223865 -0.119742,0.499793 0,0.275927 0.119742,0.499793 0.124948,0.218659 0.333196,0.348814 0.213453,0.124948 0.473762,0.124948 z"
         style="font-style:normal;font-variant:normal;font-weight:bold;font-stretch:normal;font-size:5.20617771px;line-height:100%;font-family:Comfortaa;-inkscape-font-specification:Comfortaa;font-variant-ligatures:normal;font-variant-caps:normal;font-variant-numeric:normal;font-feature-settings:normal;text-align:start;letter-spacing:0px;word-spacing:0px;writing-mode:lr-tb;text-anchor:start;fill:#edb200;fill-opacity:1;stroke:none;stroke-width:0.13945119px;stroke-linecap:butt;stroke-linejoin:miter;stroke-opacity:1"
         id="path2274" />
      <path
         inkscape:connector-curvature="0"
         d="m 55.196911,28.997884 q 0.09371,0 0.156185,0.07289 0.06768,0.07289 0.06768,0.187422 0,0.114536 -0.0885,0.187423 -0.0833,0.07289 -0.21866,0.07289 h -0.09371 q -0.255103,0 -0.468556,-0.130154 -0.208247,-0.135361 -0.327989,-0.364433 -0.119742,-0.229071 -0.119742,-0.515411 v -1.285926 h -0.239485 q -0.109329,0 -0.17701,-0.06247 -0.06768,-0.06247 -0.06768,-0.156185 0,-0.104124 0.06768,-0.166598 0.06768,-0.06247 0.17701,-0.06247 h 0.239485 v -0.74969 q 0,-0.114536 0.07289,-0.187422 0.07289,-0.07289 0.187423,-0.07289 0.114535,0 0.187422,0.07289 0.07289,0.07289 0.07289,0.187422 v 0.74969 h 0.442525 q 0.10933,0 0.177011,0.06247 0.06768,0.06247 0.06768,0.166598 0,0.09371 -0.06768,0.156185 -0.06768,0.06247 -0.177011,0.06247 h -0.442538 v 1.285926 q 0,0.208247 0.114536,0.348814 0.114536,0.140567 0.281134,0.140567 z"
         style="font-style:normal;font-variant:normal;font-weight:bold;font-stretch:normal;font-size:5.20617771px;line-height:100%;font-family:Comfortaa;-inkscape-font-specification:Comfortaa;font-variant-ligatures:normal;font-variant-caps:normal;font-variant-numeric:normal;font-feature-settings:normal;text-align:start;letter-spacing:0px;word-spacing:0px;writing-mode:lr-tb;text-anchor:start;fill:#edb200;fill-opacity:1;stroke:none;stroke-width:0.13945119px;stroke-linecap:butt;stroke-linejoin:miter;stroke-opacity:1"
         id="path2276" />
      <path
         inkscape:connector-curvature="0"
         d="m 57.300202,25.931445 q -0.291546,0 -0.468556,0.192628 -0.17701,0.192629 -0.17701,0.510206 v 0.140567 h 0.53103 q 0.10933,0 0.17701,0.06247 0.06768,0.06247 0.06768,0.166598 0,0.09371 -0.06768,0.156185 -0.06768,0.06247 -0.17701,0.06247 h -0.53103 v 2.030409 q 0,0.119742 -0.07289,0.192629 -0.07289,0.07289 -0.203041,0.07289 -0.104123,0 -0.182216,-0.07289 -0.07289,-0.07289 -0.07289,-0.192629 v -2.030409 h -0.223866 q -0.10933,0 -0.17701,-0.06247 -0.06768,-0.06247 -0.06768,-0.156185 0,-0.104124 0.06768,-0.166598 0.06768,-0.06247 0.17701,-0.06247 h 0.223866 v -0.0885 q 0,-0.369639 0.145773,-0.645566 0.150979,-0.281134 0.416494,-0.432113 0.270721,-0.156185 0.614329,-0.156185 0.114536,0 0.187422,0.06768 0.07809,0.06768 0.07809,0.171804 0,0.104123 -0.07809,0.171804 -0.07289,0.06768 -0.187422,0.06768 z"
         style="font-style:normal;font-variant:normal;font-weight:bold;font-stretch:normal;font-size:5.20617771px;line-height:100%;font-family:Comfortaa;-inkscape-font-specification:Comfortaa;font-variant-ligatures:normal;font-variant-caps:normal;font-variant-numeric:normal;font-feature-settings:normal;text-align:start;letter-spacing:0px;word-spacing:0px;writing-mode:lr-tb;text-anchor:start;fill:#edb200;fill-opacity:1;stroke:none;stroke-width:0.13945119px;stroke-linecap:butt;stroke-linejoin:miter;stroke-opacity:1"
         id="path2278" />
      <path
         inkscape:connector-curvature="0"
         d="m 59.169211,26.649897 q 0.411288,0 0.734071,0.187423 0.327989,0.182216 0.510205,0.510205 0.187422,0.327989 0.187422,0.74969 0,0.416494 -0.182216,0.744483 -0.182216,0.327989 -0.510205,0.515412 -0.322783,0.182216 -0.739277,0.182216 -0.416495,0 -0.744484,-0.182216 -0.327989,-0.187423 -0.510205,-0.515412 -0.182216,-0.327989 -0.182216,-0.744483 0,-0.421701 0.182216,-0.74969 0.182216,-0.327989 0.510205,-0.510205 0.327989,-0.187423 0.744484,-0.187423 z m 0,0.468556 q -0.265515,0 -0.478969,0.124949 -0.208247,0.124948 -0.327989,0.348814 -0.119742,0.223865 -0.119742,0.504999 0,0.281133 0.119742,0.504999 0.119742,0.21866 0.327989,0.343608 0.213454,0.124948 0.478969,0.124948 0.265515,0 0.473762,-0.124948 0.213453,-0.124948 0.327989,-0.343608 0.119742,-0.223866 0.119742,-0.504999 0,-0.281134 -0.119742,-0.504999 -0.114536,-0.223866 -0.327989,-0.348814 -0.208247,-0.124949 -0.473762,-0.124949 z"
         style="font-style:normal;font-variant:normal;font-weight:bold;font-stretch:normal;font-size:5.20617771px;line-height:100%;font-family:Comfortaa;-inkscape-font-specification:Comfortaa;font-variant-ligatures:normal;font-variant-caps:normal;font-variant-numeric:normal;font-feature-settings:normal;text-align:start;letter-spacing:0px;word-spacing:0px;writing-mode:lr-tb;text-anchor:start;fill:#edb200;fill-opacity:1;stroke:none;stroke-width:0.13945119px;stroke-linecap:butt;stroke-linejoin:miter;stroke-opacity:1"
         id="path2280" />
      <path
         inkscape:connector-curvature="0"
         d="m 62.7875,26.639485 q 0.275927,0 0.432113,0.0833 0.156185,0.0833 0.156185,0.208247 0,0.03644 -0.0052,0.05206 -0.04686,0.166597 -0.208247,0.166597 -0.02603,0 -0.07809,-0.01041 -0.208247,-0.03644 -0.338401,-0.03644 -0.374845,0 -0.603917,0.171804 -0.229072,0.171804 -0.229072,0.46335 v 1.520203 q 0,0.124949 -0.06768,0.192629 -0.06247,0.06768 -0.192629,0.06768 -0.124948,0 -0.192628,-0.06247 -0.06768,-0.06768 -0.06768,-0.197835 v -2.327161 q 0,-0.124948 0.06768,-0.192629 0.06768,-0.06768 0.192628,-0.06768 0.260309,0 0.260309,0.260309 v 0.09892 q 0.156186,-0.182216 0.385257,-0.286339 0.229072,-0.104124 0.489381,-0.104124 z"
         style="font-style:normal;font-variant:normal;font-weight:bold;font-stretch:normal;font-size:5.20617771px;line-height:100%;font-family:Comfortaa;-inkscape-font-specification:Comfortaa;font-variant-ligatures:normal;font-variant-caps:normal;font-variant-numeric:normal;font-feature-settings:normal;text-align:start;letter-spacing:0px;word-spacing:0px;writing-mode:lr-tb;text-anchor:start;fill:#edb200;fill-opacity:1;stroke:none;stroke-width:0.13945119px;stroke-linecap:butt;stroke-linejoin:miter;stroke-opacity:1"
         id="path2282" />
      <path
         inkscape:connector-curvature="0"
         d="m 66.91599,26.644691 q 0.452937,0 0.728865,0.296752 0.281133,0.296753 0.281133,0.827783 v 1.488966 q 0,0.114536 -0.07289,0.192629 -0.07289,0.07289 -0.192629,0.07289 -0.114536,0 -0.192628,-0.07289 -0.07289,-0.07809 -0.07289,-0.192629 v -1.488966 q 0,-0.317577 -0.161391,-0.478969 -0.156186,-0.166597 -0.421701,-0.166597 -0.270721,0 -0.447731,0.187422 -0.171804,0.187422 -0.171804,0.478968 v 1.468142 q 0,0.114536 -0.07289,0.192629 -0.07289,0.07289 -0.192629,0.07289 -0.114536,0 -0.192628,-0.07289 -0.07289,-0.07809 -0.07289,-0.192629 v -1.488966 q 0,-0.317577 -0.161391,-0.478969 -0.156186,-0.166597 -0.421701,-0.166597 -0.275927,0 -0.452937,0.187422 -0.171804,0.187422 -0.171804,0.478968 v 1.468142 q 0,0.114536 -0.07289,0.192629 -0.07289,0.07289 -0.192628,0.07289 -0.114536,0 -0.192629,-0.07289 -0.07289,-0.07809 -0.07289,-0.192629 v -2.316749 q 0,-0.119742 0.07289,-0.192628 0.07809,-0.07289 0.192629,-0.07289 0.114536,0 0.187422,0.07289 0.07289,0.06768 0.07809,0.182216 0.13536,-0.135361 0.322783,-0.208247 0.187422,-0.07809 0.406082,-0.07809 0.265515,0 0.473762,0.10933 0.213453,0.104124 0.348814,0.301958 0.156185,-0.192628 0.390463,-0.301958 0.234278,-0.10933 0.520618,-0.10933 z"
         style="font-style:normal;font-variant:normal;font-weight:bold;font-stretch:normal;font-size:5.20617771px;line-height:100%;font-family:Comfortaa;-inkscape-font-specification:Comfortaa;font-variant-ligatures:normal;font-variant-caps:normal;font-variant-numeric:normal;font-feature-settings:normal;text-align:start;letter-spacing:0px;word-spacing:0px;writing-mode:lr-tb;text-anchor:start;fill:#edb200;fill-opacity:1;stroke:none;stroke-width:0.13945119px;stroke-linecap:butt;stroke-linejoin:miter;stroke-opacity:1"
         id="path2284" />
    </g>
  </g>
</svg>
