<?xml version="1.0" encoding="UTF-8" standalone="no"?>
<!-- Svg Vector Icons : http://www.onlinewebfonts.com/icon -->

<svg
   xmlns:dc="http://purl.org/dc/elements/1.1/"
   xmlns:cc="http://creativecommons.org/ns#"
   xmlns:rdf="http://www.w3.org/1999/02/22-rdf-syntax-ns#"
   xmlns:svg="http://www.w3.org/2000/svg"
   xmlns="http://www.w3.org/2000/svg"
   xmlns:sodipodi="http://sodipodi.sourceforge.net/DTD/sodipodi-0.dtd"
   xmlns:inkscape="http://www.inkscape.org/namespaces/inkscape"
   version="1.1"
   x="0px"
   y="0px"
   viewBox="0 0 15.969062 17.248843"
   enable-background="new 0 0 1000 1000"
   xml:space="preserve"
   id="svg16"
   sodipodi:docname="play_icon.svg"
   inkscape:version="0.92.5 (2060ec1f9f, 2020-04-08)"
   width="15.969062"
   height="17.248842"><defs
   id="defs20" /><sodipodi:namedview
   pagecolor="#ffffff"
   bordercolor="#666666"
   borderopacity="1"
   objecttolerance="10"
   gridtolerance="10"
   guidetolerance="10"
   inkscape:pageopacity="0"
   inkscape:pageshadow="2"
   inkscape:window-width="1920"
   inkscape:window-height="1010"
   id="namedview18"
   showgrid="false"
   inkscape:zoom="7.552"
   inkscape:cx="-22.325848"
   inkscape:cy="-7.9941711"
   inkscape:window-x="0"
   inkscape:window-y="0"
   inkscape:window-maximized="1"
   inkscape:current-layer="svg16" />
<metadata
   id="metadata2"> Svg Vector Icons : http://www.onlinewebfonts.com/icon <rdf:RDF><cc:Work
     rdf:about=""><dc:format>image/svg+xml</dc:format><dc:type
       rdf:resource="http://purl.org/dc/dcmitype/StillImage" /><dc:title /></cc:Work></rdf:RDF></metadata>
<g
   id="g14"
   style="fill:#e6a23c;fill-opacity:1"
   transform="matrix(0.0176005,0,0,0.0176005,-0.81580492,-0.176005)"><g
     transform="matrix(0.1,0,0,-0.1,0,254)"
     id="g12"
     style="fill:#e6a23c;fill-opacity:1"><path
       d="m 1953.2,1503.7 c 963.4,-975 2510.9,-2549.6 3346.6,-3408.5 l 479.8,-491.4 708,704.2 c 390.8,390.8 708,719.6 708,731.2 0,38.7 -6027.8,3400.8 -6101.3,3400.8 -42.6,0 290.2,-359.8 858.9,-936.3 z"
       id="path4"
       inkscape:connector-curvature="0"
       style="fill:#e6a23c;fill-opacity:1" /><path
       d="m 610.7,2296.8 c -34.8,-38.7 -81.2,-119.9 -104.5,-178 -31,-77.4 -42.6,-1497.3 -42.6,-4577 0,-4894.2 -11.6,-4638.8 232.1,-4813 l 123.8,-89 2375.5,2375.5 2375.6,2375.7 -611.3,619 C 4622.7,-1649.5 3520,-531.4 2510.3,497.7 777,2258.2 668.7,2362.6 610.7,2296.8 Z"
       id="path6"
       inkscape:connector-curvature="0"
       style="fill:#e6a23c;fill-opacity:1" /><path
       d="m 6770,-1873.9 -754.4,-754.4 638.4,-646.1 c 352.1,-356 657.7,-653.8 677.1,-661.6 46.4,-11.6 1973.2,1044.6 2073.8,1137.4 38.7,34.8 89,120 112.2,193.5 65.8,197.3 -34.8,371.4 -305.6,533.9 -193.4,116.1 -1412.2,800.9 -1613.4,905.3 -69.8,38.7 -154.9,-34.8 -828.1,-708 z"
       id="path8"
       inkscape:connector-curvature="0"
       style="fill:#e6a23c;fill-opacity:1" /><path
       d="M 3628.4,-5007.7 C 2440.7,-6187.7 1481.2,-7155 1496.7,-7155 c 11.6,0 112.2,50.3 220.5,112.2 212.8,116.1 4414.5,2421.9 4898.1,2685 506.8,270.8 526.2,174.1 -174.1,878.3 -340.5,340.5 -626.8,619 -638.4,619 -11.6,-3.8 -990.5,-967.2 -2174.4,-2147.2 z"
       id="path10"
       inkscape:connector-curvature="0"
       style="fill:#e6a23c;fill-opacity:1" /></g></g>
</svg>