<?xml version="1.0" encoding="UTF-8" standalone="no"?>
<!-- Created with Inkscape (http://www.inkscape.org/) -->

<svg
   xmlns:dc="http://purl.org/dc/elements/1.1/"
   xmlns:cc="http://creativecommons.org/ns#"
   xmlns:rdf="http://www.w3.org/1999/02/22-rdf-syntax-ns#"
   xmlns:svg="http://www.w3.org/2000/svg"
   xmlns="http://www.w3.org/2000/svg"
   xmlns:sodipodi="http://sodipodi.sourceforge.net/DTD/sodipodi-0.dtd"
   xmlns:inkscape="http://www.inkscape.org/namespaces/inkscape"
   width="70.222702mm"
   height="76.722206mm"
   viewBox="0 0 70.222702 76.722206"
   version="1.1"
   id="svg8"
   inkscape:version="0.92.5 (2060ec1f9f, 2020-04-08)"
   sodipodi:docname="play_icon.svg">
  <defs
     id="defs2" />
  <sodipodi:namedview
     id="base"
     pagecolor="#ffffff"
     bordercolor="#666666"
     borderopacity="1.0"
     inkscape:pageopacity="0.0"
     inkscape:pageshadow="2"
     inkscape:zoom="0.98994949"
     inkscape:cx="242.48099"
     inkscape:cy="73.893846"
     inkscape:document-units="mm"
     inkscape:current-layer="layer1"
     showgrid="false"
     fit-margin-top="0"
     fit-margin-left="0"
     fit-margin-right="0"
     fit-margin-bottom="0"
     inkscape:window-width="1920"
     inkscape:window-height="1009"
     inkscape:window-x="0"
     inkscape:window-y="0"
     inkscape:window-maximized="1" />
  <metadata
     id="metadata5">
    <rdf:RDF>
      <cc:Work
         rdf:about="">
        <dc:format>image/svg+xml</dc:format>
        <dc:type
           rdf:resource="http://purl.org/dc/dcmitype/StillImage" />
        <dc:title></dc:title>
      </cc:Work>
    </rdf:RDF>
  </metadata>
  <g
     inkscape:label="Layer 1"
     inkscape:groupmode="layer"
     id="layer1"
     transform="translate(-1.9527989,-1.6306413)">
    <path
       style="fill:#ffffff;stroke-width:0.26458332"
       d="m 6.8696393,78.234615 c 1.338022,-1.43493 36.1094527,-36.129682 36.2095427,-36.129682 0.20284,0 10.33508,10.14521 10.33508,10.34831 0,0.0918 -1.33946,0.91743 -2.97657,1.83471 -6.77005,3.79327 -14.83695,8.33471 -20.306768,11.43216 -1.67349,0.94766 -5.602552,3.15082 -8.73125,4.89591 -3.128698,1.74509 -6.819636,3.82592 -8.202084,4.624072 -3.098617,1.78897 -5.7021467,3.11275 -6.1219677,3.11275 -0.173925,0 -0.266617,-0.0532 -0.205983,-0.11823 z m -4.3161501,-1.8 -0.6006903,-1.12447 V 39.988263 4.6663923 L 2.5534892,3.5419126 c 0.330379,-0.61846 0.6878811,-1.12448 0.7944481,-1.12448 0.106568,0 8.6465677,8.4534404 18.9777787,18.7854204 l 18.784016,18.78541 -18.784016,18.78542 C 11.994505,69.105663 3.4545053,77.559095 3.3479373,77.559095 c -0.106567,0 -0.4640691,-0.50601 -0.7944481,-1.12448 z M 50.745142,45.661253 c -2.97037,-2.98202 -5.43071,-5.50892 -5.46741,-5.61534 -0.0367,-0.10641 2.40427,-2.66239 5.42439,-5.67995 l 5.49113,-5.48646 1.45478,0.86437 c 0.80012,0.4754 3.82597,2.1712 6.72411,3.76844 5.37959,2.96484 7.378,4.4563 7.7023,5.74842 0.52911,2.10816 -0.87988,3.43844 -7.57001,7.14717 -2.82538,1.56626 -5.8619,3.25893 -6.74783,3.76147 l -1.61077,0.91372 z M 24.839257,19.747643 C 14.871877,9.7794623 6.8950153,1.6268126 7.1128983,1.6306426 c 0.410171,0.007 2.29198,0.9822 6.6138587,3.4267497 2.497766,1.41279 3.77316,2.13015 8.334375,4.68777 1.309688,0.7343907 3.81,2.1386207 5.55625,3.1205307 1.74625,0.9819 4.24656,2.38739 5.55625,3.12331 1.30969,0.73591 3.15516,1.7729 4.10104,2.30441 9.37554,5.26833 13.0823,7.34773 14.48594,8.12624 0.90951,0.50444 1.65365,0.99669 1.65365,1.09388 0,0.2011 -10.12156,10.35807 -10.32196,10.35807 -0.0718,0 -8.28566,-8.15579 -18.253045,-18.12396 z"
       id="path826"
       inkscape:connector-curvature="0" />
  </g>
</svg>
